<svg xmlns="http://www.w3.org/2000/svg" width="24" height="24" viewBox="0 0 24 24" fill="none">
  <!-- left page -->
  <path d="M12 5C10 3.5 7.5 3 4 3a1 1 0 0 0-1 1v13a1 1 0 0 0 1 1c3 0 5.5.5 8 2.5" stroke="#E7EEF9" stroke-width="1.5" stroke-linejoin="round"/>
  <!-- right page -->
  <path d="M12 5c2-1.5 4.5-2 8-2a1 1 0 0 1 1 1v13a1 1 0 0 1-1 1c-3 0-5.5.5-8 2.5" stroke="#E7EEF9" stroke-width="1.5" stroke-linejoin="round"/>
  <!-- spine -->
  <line x1="12" y1="5" x2="12" y2="20.5" stroke="#E7EEF9" stroke-width="1.2" opacity="0.5"/>
  <!-- left page lines -->
  <line x1="6" y1="7.5" x2="10" y2="7.5" stroke="#E7EEF9" stroke-width="1" stroke-linecap="round" opacity="0.4"/>
  <line x1="6" y1="10" x2="10" y2="10" stroke="#E7EEF9" stroke-width="1" stroke-linecap="round" opacity="0.4"/>
  <line x1="6" y1="12.5" x2="9" y2="12.5" stroke="#E7EEF9" stroke-width="1" stroke-linecap="round" opacity="0.4"/>
  <!-- right page lines -->
  <line x1="14" y1="7.5" x2="18" y2="7.5" stroke="#E7EEF9" stroke-width="1" stroke-linecap="round" opacity="0.4"/>
  <line x1="14" y1="10" x2="18" y2="10" stroke="#E7EEF9" stroke-width="1" stroke-linecap="round" opacity="0.4"/>
  <line x1="14" y1="12.5" x2="17" y2="12.5" stroke="#E7EEF9" stroke-width="1" stroke-linecap="round" opacity="0.4"/>
  <!-- bookmark ribbon -->
  <path d="M15 3v4l1.5-1 1.5 1V3" stroke="#E7EEF9" stroke-width="1" stroke-linejoin="round" fill="#E7EEF9" fill-opacity="0.15"/>
</svg>
