<svg xmlns="http://www.w3.org/2000/svg" width="24" height="24" viewBox="0 0 24 24" fill="none">
  <path d="M12 8.5A3.5 3.5 0 1 0 12 15.5A3.5 3.5 0 1 0 12 8.5Z" stroke="#E7EEF9" stroke-width="1.8"/>
  <path d="M3.8 13.2V10.8L6.1 10L7 7.9L5.9 5.7L7.7 3.9L9.9 5L12 4.1L12.8 1.8H15.2L16 4.1L18.1 5L20.3 3.9L22.1 5.7L21 7.9L21.9 10L24.2 10.8V13.2L21.9 14L21 16.1L22.1 18.3L20.3 20.1L18.1 19L16 19.9L15.2 22.2H12.8L12 19.9L9.9 19L7.7 20.1L5.9 18.3L7 16.1L6.1 14L3.8 13.2Z" stroke="#E7EEF9" stroke-width="1.6" stroke-linejoin="round"/>
</svg>
